<svg width="600" height="119" viewBox="0 0 600 119" fill="none" xmlns="http://www.w3.org/2000/svg">
<g clip-path="url(#clip0_3013_387995)">
<path d="M137.983 38.5244V40.0876C137.983 51.2723 133.347 61.97 125.154 69.5966L76.4555 115.061C74.4351 116.947 71.766 117.998 68.9905 117.998C66.2151 117.998 63.546 116.947 61.5256 115.061L12.8287 69.5966C4.63638 61.97 0 51.2723 0 40.0876V38.5244C0 19.6875 13.6093 3.62396 32.1781 0.52525C44.4667 -1.52284 56.9721 2.49252 65.7578 11.2782C67.5443 13.0647 70.4389 13.0647 72.2254 11.2782C81.0111 2.49252 93.5165 -1.52284 105.805 0.52525C124.374 3.62396 137.983 19.6875 137.983 38.5244ZM32.712 67.1274C32.712 61.6744 32.5588 56.9487 32.7013 51.0447C31.3785 51.4977 30.2704 52.1485 29.3517 53.1098C28.3563 54.1498 27.7778 55.4004 27.5162 56.7977C27.2036 58.4714 27.2185 60.1537 27.5949 61.8147C28.1543 64.286 29.7047 65.9088 32.0144 66.8573C32.2228 66.9424 32.4355 67.0211 32.712 67.1295V67.1274ZM103.995 54.5943C103.995 45.2003 96.3813 37.5865 86.9873 37.5865H71.4002V28.6668C73.327 27.782 74.6669 25.836 74.6669 23.5774C74.6669 20.4851 72.1594 17.9776 69.0671 17.9776C65.9748 17.9776 63.4673 20.4851 63.4673 23.5774C63.4673 25.8382 64.8072 27.782 66.734 28.6668V37.5865H51.1469C41.7529 37.5865 34.139 45.2003 34.139 54.5943V63.7884C34.139 73.1823 41.7529 80.7962 51.1469 80.7962H86.9873C96.3813 80.7962 103.995 73.1823 103.995 63.7884V54.5943ZM110.465 56.7977C110.203 55.4004 109.625 54.1498 108.629 53.1098C107.711 52.1485 106.603 51.4977 105.28 51.0447C105.424 56.9487 105.269 61.6744 105.269 67.1274C105.546 67.0189 105.758 66.9403 105.967 66.8552C108.276 65.9088 109.825 64.2839 110.386 61.8126C110.763 60.1495 110.777 58.4693 110.465 56.7955V56.7977ZM60.1431 59.3902C60.1431 62.6144 57.5293 65.2282 54.3051 65.2282C51.0809 65.2282 48.4671 62.6144 48.4671 59.3902C48.4671 56.166 51.0809 53.5522 54.3051 53.5522C57.5293 53.5522 60.1431 56.166 60.1431 59.3902ZM83.8269 53.5522C80.6027 53.5522 77.9889 56.166 77.9889 59.3902C77.9889 62.6144 80.6027 65.2282 83.8269 65.2282C87.0511 65.2282 89.6649 62.6144 89.6649 59.3902C89.6649 56.166 87.0511 53.5522 83.8269 53.5522Z" fill="#48FED5"/>
<path d="M169.767 84.1454L190.627 19.959H204.044L224.904 84.1454H215.231L196.019 25.5747H198.426L179.438 84.1454H169.765H169.767ZM180.598 69.6571V60.9206H214.117V69.6571H180.598Z" fill="#48FED5"/>
<path d="M253.12 85.438C247.266 85.438 242.496 84.1458 238.813 81.5594C235.128 78.975 232.869 75.3349 232.037 70.6388L241.576 69.1678C242.17 71.6649 243.545 73.634 245.699 75.073C247.854 76.5142 250.536 77.2358 253.746 77.2358C256.658 77.2358 258.938 76.6419 260.588 75.4519C262.238 74.2641 263.062 72.6292 263.062 70.5494C263.062 69.3317 262.772 68.3419 262.193 67.5862C261.614 66.8283 260.403 66.1088 258.559 65.4233C256.716 64.74 253.908 63.8928 250.136 62.8837C246.006 61.813 242.73 60.6634 240.307 59.4287C237.885 58.1962 236.163 56.755 235.137 55.1052C234.111 53.4554 233.6 51.4587 233.6 49.1106C233.6 46.1985 234.372 43.6589 235.918 41.4875C237.463 39.3183 239.639 37.6387 242.449 36.4509C245.257 35.263 248.548 34.667 252.322 34.667C256.096 34.667 259.29 35.246 262.174 36.4062C265.056 37.5642 267.389 39.2076 269.171 41.3321C270.955 43.4566 272.024 45.9452 272.381 48.7977L262.842 50.5369C262.515 48.2187 261.431 46.3922 259.588 45.0553C257.744 43.7185 255.353 42.9904 252.411 42.8712C249.589 42.752 247.3 43.2204 245.546 44.2762C243.792 45.3321 242.917 46.7796 242.917 48.6232C242.917 49.6939 243.251 50.6008 243.92 51.3416C244.588 52.0845 245.889 52.7977 247.82 53.481C249.751 54.1643 252.603 54.9818 256.377 55.9333C260.418 56.9743 263.628 58.1259 266.006 59.3883C268.384 60.6507 270.084 62.1514 271.111 63.8906C272.137 65.6298 272.647 67.7309 272.647 70.1982C272.647 74.9538 270.917 78.6834 267.455 81.3869C263.994 84.0905 259.217 85.4422 253.125 85.4422L253.12 85.438Z" fill="#48FED5"/>
<path d="M302.687 85.438C296.833 85.438 292.062 84.1458 288.379 81.5594C284.694 78.975 282.436 75.3349 281.604 70.6388L291.143 69.1678C291.736 71.6649 293.112 73.634 295.266 75.073C297.42 76.5142 300.102 77.2358 303.313 77.2358C306.225 77.2358 308.505 76.6419 310.154 75.4519C311.804 74.2641 312.628 72.6292 312.628 70.5494C312.628 69.3317 312.339 68.3419 311.76 67.5862C311.181 66.8283 309.969 66.1088 308.126 65.4233C306.282 64.74 303.474 63.8928 299.702 62.8837C295.572 61.813 292.296 60.6634 289.874 59.4287C287.451 58.1962 285.729 56.755 284.703 55.1052C283.677 53.4554 283.166 51.4587 283.166 49.1106C283.166 46.1985 283.939 43.6589 285.484 41.4875C287.03 39.3183 289.205 37.6387 292.015 36.4509C294.823 35.263 298.114 34.667 301.888 34.667C305.663 34.667 308.856 35.246 311.74 36.4062C314.623 37.5642 316.956 39.2076 318.738 41.3321C320.522 43.4566 321.59 45.9452 321.948 48.7977L312.409 50.5369C312.081 48.2187 310.997 46.3922 309.154 45.0553C307.31 43.7185 304.92 42.9904 301.978 42.8712C299.155 42.752 296.867 43.2204 295.113 44.2762C293.359 45.3321 292.484 46.7796 292.484 48.6232C292.484 49.6939 292.818 50.6008 293.486 51.3416C294.155 52.0845 295.455 52.7977 297.386 53.481C299.317 54.1643 302.169 54.9818 305.944 55.9333C309.984 56.9743 313.194 58.1259 315.572 59.3883C317.95 60.6507 319.651 62.1514 320.677 63.8906C321.703 65.6298 322.214 67.7309 322.214 70.1982C322.214 74.9538 320.483 78.6834 317.022 81.3869C313.56 84.0905 308.784 85.4422 302.691 85.4422L302.687 85.438Z" fill="#48FED5"/>
<path d="M334.735 28.1143V19.0649H344.051V28.1143H334.735ZM334.735 84.1454V36.0056H344.051V84.1454H334.735Z" fill="#48FED5"/>
<path d="M382.473 85.4823C377.866 85.4823 373.713 84.6861 370.015 83.0981C366.318 81.51 363.269 79.2365 360.876 76.2775C358.484 73.3207 356.932 69.8082 356.219 65.7359L365.937 64.2649C366.918 68.1882 368.968 71.2409 372.089 73.425C375.209 75.6091 378.85 76.7012 383.009 76.7012C385.594 76.7012 387.971 76.2924 390.141 75.475C392.31 74.6576 394.055 73.4846 395.377 71.954C396.699 70.4234 397.361 68.5884 397.361 66.449C397.361 65.291 397.161 64.2649 396.759 63.373C396.357 62.481 395.807 61.7019 395.109 61.0335C394.411 60.365 393.564 59.786 392.567 59.2943C391.571 58.8047 390.479 58.381 389.291 58.0234L372.842 53.1656C371.237 52.6909 369.602 52.0735 367.94 51.3157C366.275 50.5578 364.753 49.5616 363.371 48.329C361.99 47.0965 360.868 45.5659 360.006 43.7373C359.144 41.9108 358.714 39.6884 358.714 37.0743C358.714 33.1233 359.731 29.7726 361.766 27.0222C363.801 24.274 366.558 22.1942 370.034 20.7807C373.511 19.3693 377.404 18.6626 381.713 18.6626C386.051 18.7222 389.936 19.4949 393.37 20.9808C396.801 22.4667 399.654 24.5997 401.928 27.3777C404.201 30.1558 405.768 33.5214 406.63 37.4745L396.646 39.169C396.201 36.7613 395.25 34.69 393.794 32.9508C392.337 31.2116 390.554 29.8748 388.444 28.9403C386.334 28.0036 384.046 27.5204 381.579 27.4906C379.201 27.431 377.025 27.7886 375.048 28.5613C373.07 29.3341 371.497 30.4198 370.322 31.8162C369.147 33.2127 368.561 34.8178 368.561 36.6293C368.561 38.4409 369.081 39.8544 370.122 40.9529C371.161 42.0534 372.446 42.922 373.977 43.5606C375.507 44.1992 377.03 44.7272 378.545 45.1423L390.402 48.4844C391.888 48.9017 393.574 49.4573 395.462 50.1555C397.349 50.8537 399.177 51.8266 400.946 53.074C402.713 54.3215 404.178 55.9798 405.336 58.0447C406.494 60.1096 407.075 62.7024 407.075 65.8232C407.075 68.944 406.421 71.9072 405.114 74.3595C403.807 76.8119 402.017 78.8618 399.743 80.5116C397.47 82.1614 394.847 83.4025 391.876 84.2327C388.904 85.0651 385.768 85.4802 382.471 85.4802L382.473 85.4823Z" fill="#48FED5"/>
<path d="M413.005 43.4925V36.0036H445.901V43.4925H413.005ZM445.901 84.1455C442.87 84.7394 439.898 84.9928 436.986 84.9033C434.074 84.8139 431.472 84.2498 429.186 83.2089C426.898 82.17 425.173 80.5351 424.015 78.3063C422.974 76.3159 422.417 74.2872 422.344 72.2223C422.27 70.1574 422.234 67.8179 422.234 65.2017V22.6328H431.594V64.7546C431.594 66.6875 431.615 68.365 431.66 69.7913C431.704 71.2175 432.009 72.4203 432.573 73.4016C433.644 75.2452 435.342 76.2925 437.678 76.5437C440.011 76.797 442.751 76.6991 445.901 76.2542V84.1434V84.1455Z" fill="#48FED5"/>
<path d="M476.926 85.4827C472.14 85.4827 467.945 84.4353 464.334 82.3406C460.724 80.2459 457.916 77.3189 455.911 73.5595C453.905 69.8001 452.903 65.4404 452.903 60.4761C452.903 55.2159 453.891 50.6561 455.866 46.7924C457.842 42.9308 460.598 39.9442 464.134 37.8325C467.67 35.7229 471.785 34.667 476.481 34.667C481.177 34.667 485.558 35.8037 489.007 38.0773C492.453 40.3508 495.031 43.5822 496.74 47.7716C498.45 51.9611 499.125 56.9402 498.769 62.7049H489.454V59.3181C489.394 53.7322 488.332 49.6003 486.267 46.9265C484.202 44.2528 481.058 42.9138 476.839 42.9138C472.172 42.9138 468.666 44.3848 466.318 47.3267C463.97 50.2687 462.797 54.5177 462.797 60.0759C462.797 65.6341 463.97 69.4595 466.318 72.3567C468.666 75.254 472.053 76.7036 476.481 76.7036C479.393 76.7036 481.911 76.0416 484.036 74.7196C486.16 73.3977 487.817 71.5031 489.007 69.0358L498.145 71.9331C496.274 76.2417 493.434 79.5775 489.632 81.9404C485.828 84.3033 481.594 85.4848 476.928 85.4848L476.926 85.4827ZM459.764 62.7049V55.4394H494.131V62.7049H459.764Z" fill="#48FED5"/>
<path d="M521.768 84.1452L504.295 36.0054H513.7L526.494 72.4668L539.285 36.0054H548.69L531.217 84.1452H521.768Z" fill="#48FED5"/>
<path d="M578.066 85.4827C573.28 85.4827 569.084 84.4353 565.474 82.3406C561.864 80.2459 559.056 77.3189 557.05 73.5595C555.045 69.8001 554.042 65.4404 554.042 60.4761C554.042 55.2159 555.03 50.6561 557.006 46.7924C558.981 42.9308 561.738 39.9442 565.274 37.8325C568.81 35.7229 572.925 34.667 577.621 34.667C582.317 34.667 586.698 35.8037 590.146 38.0773C593.593 40.3508 596.171 43.5822 597.88 47.7716C599.59 51.9611 600.264 56.9402 599.909 62.7049H590.593V59.3181C590.534 53.7322 589.471 49.6003 587.407 46.9265C585.342 44.2528 582.198 42.9138 577.978 42.9138C573.312 42.9138 569.806 44.3848 567.458 47.3267C565.11 50.2687 563.937 54.5177 563.937 60.0759C563.937 65.6341 565.11 69.4595 567.458 72.3567C569.806 75.254 573.193 76.7036 577.621 76.7036C580.533 76.7036 583.051 76.0416 585.176 74.7196C587.3 73.3977 588.956 71.5031 590.146 69.0358L599.283 71.9331C597.412 76.2417 594.572 79.5775 590.77 81.9404C586.966 84.3033 582.732 85.4848 578.066 85.4848V85.4827ZM560.903 62.7049V55.4394H595.27V62.7049H560.903Z" fill="#48FED5"/>
</g>
<defs>
<clipPath id="clip0_3013_387995">
<rect width="600" height="118.11" fill="white"/>
</clipPath>
</defs>
</svg>
