<svg width="24" height="24" viewBox="0 0 24 24" fill="none" xmlns="http://www.w3.org/2000/svg">
<path d="M12.0001 19C11.8479 19 11.6957 18.9603 11.57 18.8809C11.3054 18.7221 11.1399 18.4376 11.1466 18.1267V12.8535H5.86679C5.55583 12.8535 5.27133 12.6881 5.11915 12.4301C4.96036 12.1654 4.96036 11.8346 5.11915 11.5633C5.27133 11.2987 5.55583 11.1399 5.86017 11.1399H11.1466V5.86673C11.1399 5.39698 11.5171 5.01323 11.9868 5C12.2316 5 12.4434 5.08601 12.6021 5.25142C12.7675 5.41682 12.8602 5.64178 12.8536 5.86673V11.1399H18.1333C18.4443 11.1399 18.7288 11.3053 18.881 11.5633C19.0398 11.828 19.0398 12.1588 18.881 12.4301C18.7288 12.6947 18.4443 12.8535 18.1399 12.8535H12.8536V18.1333C12.8536 18.4376 12.6948 18.7287 12.4301 18.8809C12.2978 18.9603 12.1522 19 12.0001 19Z" fill="white"/>
</svg>
