<svg width="24" height="24" viewBox="0 0 24 24" fill="none" xmlns="http://www.w3.org/2000/svg">
<path d="M1.5 12C1.5 9.21523 2.60625 6.54451 4.57538 4.57538C6.54451 2.60625 9.21523 1.5 12 1.5C14.7848 1.5 17.4555 2.60625 19.4246 4.57538C21.3938 6.54451 22.5 9.21523 22.5 12C22.5 14.7848 21.3938 17.4555 19.4246 19.4246C17.4555 21.3938 14.7848 22.5 12 22.5C9.21523 22.5 6.54451 21.3938 4.57538 19.4246C2.60625 17.4555 1.5 14.7848 1.5 12ZM11.7135 6.807C11.624 6.844 11.5425 6.898 11.4735 6.966L11.469 6.9705L7.719 10.7205C7.64937 10.7902 7.59415 10.873 7.5565 10.9641C7.51885 11.0551 7.49951 11.1527 7.49958 11.2513C7.49965 11.3498 7.51913 11.4474 7.55691 11.5384C7.59468 11.6294 7.65002 11.7121 7.71975 11.7817C7.78948 11.8514 7.87225 11.9066 7.96332 11.9442C8.05439 11.9819 8.15198 12.0012 8.25053 12.0012C8.34908 12.0011 8.44664 11.9816 8.53766 11.9438C8.62868 11.9061 8.71137 11.8507 8.781 11.781L11.25 9.3105V16.5C11.25 16.6989 11.329 16.8897 11.4697 17.0303C11.6103 17.171 11.8011 17.25 12 17.25C12.1989 17.25 12.3897 17.171 12.5303 17.0303C12.671 16.8897 12.75 16.6989 12.75 16.5V9.3105L15.219 11.781C15.3598 11.9218 15.5508 12.0009 15.75 12.0009C15.9492 12.0009 16.1402 11.9218 16.281 11.781C16.4218 11.6402 16.5009 11.4492 16.5009 11.25C16.5009 11.0508 16.4218 10.8598 16.281 10.719L12.531 6.969L12.5265 6.966C12.4216 6.86258 12.2885 6.79235 12.1439 6.76407C11.9994 6.73579 11.8497 6.75072 11.7135 6.807Z" fill="#289D8C"/>
</svg>
